# xmcd
#
# Track frame offsets:
#	150
#	15863
#	34433
#	47734
#	64701
#	81697
#	99779
#	118096
#	134340
#	154939
#
# Disc length: 2389 seconds
#
# Revision: 1
# Processed by: cddbd v1.4PL0 Copyright (c) Steve Scherf et al.
# Submitted via: audiograbber 1.82.02
#
DISCID=8009530a
DTITLE=Kirste - There and Back
DYEAR=1900
DGENRE=
TTITLE0=Frail
TTITLE1=Keep it to Myself
TTITLE2=From Now On
TTITLE3=Everything to Me
TTITLE4=Pride
TTITLE5=Day To Day
TTITLE6=This Day
TTITLE7=With You
TTITLE8=Breaking Me Down
TTITLE9=Love in Me
EXTD=
EXTT0=
EXTT1=
EXTT2=
EXTT3=
EXTT4=
EXTT5=
EXTT6=
EXTT7=
EXTT8=
EXTT9=
PLAYORDER=
